<svg xmlns="http://www.w3.org/2000/svg" viewBox="0 0 512 512"><defs><linearGradient id="bg" x1="0%" x2="100%" y1="0%" y2="100%"><stop offset="0%" style="stop-color:#667eea"/><stop offset="100%" style="stop-color:#764ba2"/></linearGradient><linearGradient id="note" x1="0%" x2="100%" y1="0%" y2="100%"><stop offset="0%" style="stop-color:#f093fb"/><stop offset="100%" style="stop-color:#f5576c"/></linearGradient><linearGradient id="wave" x1="0%" x2="100%" y1="0%" y2="0%"><stop offset="0%" style="stop-color:#4facfe"/><stop offset="100%" style="stop-color:#00f2fe"/></linearGradient></defs><circle cx="256" cy="256" r="240" fill="url(#bg)"/><g fill="url(#wave)" opacity=".9"><rect width="20" height="112" x="80" y="200" rx="10"/><rect width="20" height="192" x="115" y="160" rx="10"/><rect width="20" height="252" x="150" y="130" rx="10"/><rect width="20" height="172" x="185" y="170" rx="10"/><rect width="20" height="132" x="220" y="190" rx="10"/></g><path fill="#fff" stroke="#fff" stroke-linejoin="round" stroke-width="8" d="M270 256 L320 256 L300 230 L340 256 L300 282 L320 256"/><g transform="translate(350, 150)"><rect width="100" height="212" x="0" y="0" fill="#fff" opacity=".95" rx="8"/><rect width="25" height="200" x="5" y="5" fill="#f8f8f8" stroke="#ddd" rx="3"/><rect width="25" height="200" x="35" y="5" fill="#f8f8f8" stroke="#ddd" rx="3"/><rect width="25" height="200" x="65" y="5" fill="#f8f8f8" stroke="#ddd" rx="3"/><rect width="18" height="120" x="22" y="5" fill="#333" rx="3"/><rect width="18" height="120" x="55" y="5" fill="#333" rx="3"/><circle cx="17" cy="175" r="8" fill="url(#note)"/><circle cx="47" cy="160" r="8" fill="url(#note)"/><circle cx="77" cy="180" r="8" fill="url(#note)"/></g><g fill="url(#note)" transform="translate(320, 80)"><ellipse cx="12" cy="35" rx="12" ry="10"/><rect width="4" height="35" x="22" y="0"/><path fill="url(#note)" d="M26 0 Q40 5, 38 20 Q36 10, 26 12"/></g></svg>